<?xml version="1.0" encoding="UTF-8"?>
<svg width="85px" height="36px" viewBox="0 0 85 36" version="1.1" xmlns="http://www.w3.org/2000/svg" xmlns:xlink="http://www.w3.org/1999/xlink">
    <title>ssl-s4</title>
    <g id="ssl-s4" stroke="none" stroke-width="1" fill="none" fill-rule="evenodd">
        <g id="ipw.cn" transform="translate(5.000000, 4.000000)">
            <rect stroke="#3A84FF" x="0.5" y="0.5" width="74" height="27" rx="5"></rect>
            <g transform="translate(15.000000, 4.000000)" fill="#3A84FF">
                <text id="SSL" font-family="PingFangSC-Semibold, PingFang SC" font-size="14" font-weight="500">
                    <tspan x="19" y="15">SSL</tspan>
                </text>
                <path d="M12.8909648,7.38528817 L13.2863576,6.05666477 C13.360741,5.8069981 13.2883511,5.53671816 13.0991387,5.35765114 L12.0922832,4.40467174 L11.7705341,3.05628057 C11.7097987,2.80289896 11.5121022,2.60499523 11.2587206,2.5446932 L9.91053677,2.22271805 L8.95755735,1.21606982 C8.82709871,1.07818885 8.64566177,1 8.45584445,1 C8.39009639,1 8.32351917,1.00929039 8.25856256,1.02864356 L6.93003341,1.42424374 L5.60142886,1.02864356 C5.53753346,1.009612 5.47121222,1 5.40454272,1 C5.21464003,1 5.03309282,1.07808237 4.90262252,1.21606982 L3.94962425,2.22271805 L2.60123311,2.54467436 C2.34784311,2.60516196 2.15003067,2.80305455 2.08964574,3.05646904 L1.76768941,4.4046529 L0.761041195,5.3576323 C0.571805883,5.53657858 0.499594189,5.80688245 0.573841061,6.05664593 L0.969233959,7.38526931 L0.573841061,8.71368542 C0.499516327,8.96340772 0.571884893,9.23370802 0.761041195,9.4128875 L1.76768941,10.3656785 L2.08964574,11.7138812 C2.15005445,11.9672824 2.3478564,12.1651645 2.60123311,12.2256758 L3.94962425,12.5476322 L4.90262252,13.5542992 C5.03309931,13.6922728 5.21464567,13.7703318 5.40454272,13.7703318 C5.47030962,13.7703318 5.53647225,13.7610787 5.60142886,13.7414994 L6.93005225,13.3461065 L8.25858142,13.7414994 C8.32257884,13.7607032 8.38904675,13.7703318 8.45586328,13.7703318 C8.64567406,13.7703318 8.82710848,13.6921626 8.9575762,13.5542992 L9.91055561,12.5476322 L11.2587395,12.2256758 C11.5121371,12.1651204 11.7099882,11.9672765 11.770553,11.7138812 L12.092302,10.3656785 L13.0989691,9.4128875 C13.2881856,9.23375278 13.3608118,8.96341122 13.2863576,8.71368542 L12.8909648,7.38528817 Z M6.93003341,3.959247 C8.8371229,3.959247 10.3831916,5.50512731 10.3831916,7.41231102 C10.3831916,9.31930627 8.8371229,10.8653939 6.93003341,10.8653939 C5.02283085,10.8653939 3.47715782,9.31932513 3.47715782,7.41231102 C3.47715782,5.50512731 5.02284969,3.959247 6.93003341,3.959247 Z M1.71682841,13.3636694 L0.105369645,17.2678303 C0.105369645,17.2678303 -0.359427121,18.1354824 0.663370735,18.0735597 C1.68575403,18.0116371 2.55361334,18.0425042 2.55361334,18.0425042 L3.85478046,19.3130115 C3.85478046,19.3130115 4.35065161,19.9638023 4.72263979,19.3130115 C5.09423223,18.6622395 6.6128824,14.6959298 6.6128824,14.6959298 C6.6128824,14.6959298 4.81544839,15.4705848 3.63812656,14.3552044 C2.46042786,13.239598 1.71682841,13.3636694 1.71682841,13.3636694 L1.71682841,13.3636694 Z M12.2831579,13.3636694 L13.8946167,17.2678303 C13.8946167,17.2678303 14.3593947,18.1354824 13.3368041,18.0735597 C12.3141947,18.0116371 11.4467688,18.0425042 11.4467688,18.0425042 L10.1451871,19.3130115 C10.1451871,19.3130115 9.64931591,19.9638023 9.27772346,19.3130115 C8.90571646,18.6622395 7.38748086,14.6959298 7.38748086,14.6959298 C7.38748086,14.6959298 9.18451914,15.4705848 10.3622367,14.3552044 C11.5395585,13.239598 12.2831579,13.3636694 12.2831579,13.3636694 L12.2831579,13.3636694 Z" id="形状" fill-rule="nonzero"></path>
            </g>
            <g transform="translate(13.000000, 5.000000)"></g>
        </g>
    </g>
</svg>